<svg width="256" height="248" fill="none" xmlns="http://www.w3.org/2000/svg"><path d="M189.387 37.227l-37.71 75.42-10.239-6.399 21.996-87.983 25.953 18.962zM152.48 127.3a15.988 15.988 0 015.748 6.25 15.98 15.98 0 011.772 7.318v7.265c-.012 1.775-1.883 2.925-3.473 2.129l-44.526-22.261-.002-12.002a4 4 0 013.903-3.999h7.509c2.999 0 5.937.843 8.48 2.432L152.48 127.3z" fill="#fff"/><path d="M81.352 112.676l11.957-7.972A27.999 27.999 0 01108.842 100h14.569c3.574 0 7.099.684 10.389 1.999l9.794-97.938a31.97 31.97 0 00-34.472 2.107l-95.88 70.054C1.985 84.447-2.726 99.025 1.574 112.333l36.623 113.349C42.497 238.99 54.83 248 68.743 248h118.514c13.914 0 26.246-9.01 30.546-22.318l28.808-89.16L184 140l70.323-27.348.103-.319a32.451 32.451 0 00-4.33-28.643l-79.174 49.483a27.962 27.962 0 011.078 7.695V148h3.072c2.442 0 4.851.559 7.043 1.633l19.361 9.491c12.501 6.128 18.601 20.509 14.318 33.756l-8.57 26.504A24 24 0 01184.388 236h-21.49c-3.357 0-6.688-.604-9.832-1.783L125.824 224h-11.338a28 28 0 01-22.981 12H68.703a20 20 0 01-19.032-13.854l-15.213-47.111c-2.472-7.657 1.126-15.959 8.404-19.389L68 143.797V128l-49.676-22.927A4 4 0 0116 101.441V90.472a4 4 0 012.211-3.578l4-2a4 4 0 013.578 0l55.563 27.782z" fill="#fff"/><path d="M80 144l.002 3.147a1.6 1.6 0 00.907 1.441l1.811.872a8 8 0 014.451 8.34l-6.417 44.92a16 16 0 01-4.526 9.051l-10.18 10.18a1.194 1.194 0 00-.127 1.55 7.988 7.988 0 002.782.499h22.802a15.997 15.997 0 0015.522-12.119l9.615-38.45a16.001 16.001 0 00-9.609-18.619L80 144zm88.064 80h16.324a12 12 0 0011.418-8.308l8.57-26.504a16 16 0 00-8.182-19.289l-19.361-9.491a4.022 4.022 0 00-.833-.299v2.901a1.6 1.6 0 00.884 1.431l.91.455a8 8 0 014.012 9.685l-13.209 39.626a7.997 7.997 0 01-1.932 3.127l-4.616 4.617c-.756.755-.221 2.048.848 2.048H168l.064.001zm-4.906-103.553a27.996 27.996 0 014.256 5.066l64.984-56.86-14.065-10.277-55.175 62.071zM128 160l32.732 13.093a8 8 0 014.52 10.236l-7.305 19.48a8 8 0 01-7.491 5.191H120l8-32a32.964 32.964 0 000-16z" fill="#fff"/></svg>