<svg width="210" height="42" fill="none" xmlns="http://www.w3.org/2000/svg"><g opacity=".3"><path d="M187.895 42L210 0h-11.053l-22.105 42h11.053z" fill="url(#paint0_linear)"/><path d="M165.789 42l22.106-42h-11.053l-22.105 42h11.052z" fill="url(#paint1_linear)"/><path d="M143.684 42l22.105-42h-11.052l-22.105 42h11.052z" fill="url(#paint2_linear)"/><path d="M121.579 42l22.105-42h-11.052l-22.106 42h11.053z" fill="url(#paint3_linear)"/><path d="M99.474 42l22.105-42h-11.053L88.421 42h11.053z" fill="url(#paint4_linear)"/><path d="M77.368 42L99.474 0H88.42L66.316 42h11.052z" fill="url(#paint5_linear)"/><path d="M55.263 42L77.368 0H66.316L44.21 42h11.052z" fill="url(#paint6_linear)"/><path d="M33.158 42L55.263 0H44.211L22.105 42h11.053z" fill="url(#paint7_linear)"/><path d="M11.053 42L33.158 0H22.105L0 42h11.053z" fill="url(#paint8_linear)"/></g><defs><linearGradient id="paint0_linear" x1="210" y1="21" x2="0" y2="21" gradientUnits="userSpaceOnUse"><stop stop-color="#A2FF6A"/><stop offset="1" stop-color="#A2FF6A" stop-opacity="0"/></linearGradient><linearGradient id="paint1_linear" x1="210" y1="21" x2="0" y2="21" gradientUnits="userSpaceOnUse"><stop stop-color="#A2FF6A"/><stop offset="1" stop-color="#A2FF6A" stop-opacity="0"/></linearGradient><linearGradient id="paint2_linear" x1="210" y1="21" x2="0" y2="21" gradientUnits="userSpaceOnUse"><stop stop-color="#A2FF6A"/><stop offset="1" stop-color="#A2FF6A" stop-opacity="0"/></linearGradient><linearGradient id="paint3_linear" x1="210" y1="21" x2="0" y2="21" gradientUnits="userSpaceOnUse"><stop stop-color="#A2FF6A"/><stop offset="1" stop-color="#A2FF6A" stop-opacity="0"/></linearGradient><linearGradient id="paint4_linear" x1="210" y1="21" x2="0" y2="21" gradientUnits="userSpaceOnUse"><stop stop-color="#A2FF6A"/><stop offset="1" stop-color="#A2FF6A" stop-opacity="0"/></linearGradient><linearGradient id="paint5_linear" x1="210" y1="21" x2="0" y2="21" gradientUnits="userSpaceOnUse"><stop stop-color="#A2FF6A"/><stop offset="1" stop-color="#A2FF6A" stop-opacity="0"/></linearGradient><linearGradient id="paint6_linear" x1="210" y1="21" x2="0" y2="21" gradientUnits="userSpaceOnUse"><stop stop-color="#A2FF6A"/><stop offset="1" stop-color="#A2FF6A" stop-opacity="0"/></linearGradient><linearGradient id="paint7_linear" x1="210" y1="21" x2="0" y2="21" gradientUnits="userSpaceOnUse"><stop stop-color="#A2FF6A"/><stop offset="1" stop-color="#A2FF6A" stop-opacity="0"/></linearGradient><linearGradient id="paint8_linear" x1="210" y1="21" x2="0" y2="21" gradientUnits="userSpaceOnUse"><stop stop-color="#A2FF6A"/><stop offset="1" stop-color="#A2FF6A" stop-opacity="0"/></linearGradient></defs></svg>